<svg id="Lager_1" data-name="Lager 1" xmlns="http://www.w3.org/2000/svg" viewBox="0 0 446.13 150.87"><defs><style>.cls-1{fill:#36a9e1;}.cls-2{fill:#0e3d64;}.cls-3{fill:none;}.cls-4{fill:#fff;}.cls-5{fill:#1d71b8;}.cls-6{fill:#f9b233;}.cls-7{fill:#d01135;}</style></defs><path class="cls-1" d="M242.35,110.57s.88-2-.48-5.79-6.76-13.44.76-22S252,71.14,252,68.25s.57-2.09,1.69,1.29,2.58,6.43.89,9.17-1.61,2.57-.08,4.42,2.49,5.15-.16,7.16-4,2.1-3.22,5.64.88,4.9-2.09,7.08-4.51,2.17-5,3.46a7.88,7.88,0,0,0,0,5.31C244.76,114,242.1,113.23,242.35,110.57Z" transform="translate(-12.72 -31.51)"/><path class="cls-1" d="M231,110.57s-.88-2,.49-5.79,6.76-13.44-.77-22-9.37-11.59-9.37-14.48-.56-2.09-1.69,1.29-2.58,6.43-.89,9.17,1.61,2.57.08,4.42-2.49,5.15.17,7.16,4,2.1,3.21,5.64-.88,4.9,2.1,7.08,4.5,2.17,5,3.46a7.82,7.82,0,0,1,0,5.31C228.58,114,231.24,113.23,231,110.57Z" transform="translate(-12.72 -31.51)"/><path class="cls-2" d="M243.56,103.41s-.41-11.91,2-14.81A15.17,15.17,0,0,0,248.62,83s-2.65,3.54-4,5.39S241.71,95.2,243.56,103.41Z" transform="translate(-12.72 -31.51)"/><path class="cls-2" d="M245.66,101s.07-7.49,3-9.74C248.62,91.26,244.15,92.47,245.66,101Z" transform="translate(-12.72 -31.51)"/><path class="cls-2" d="M229.79,103.41s.4-11.91-2-14.81A15.12,15.12,0,0,1,224.72,83s2.65,3.54,4,5.39S231.64,95.2,229.79,103.41Z" transform="translate(-12.72 -31.51)"/><path class="cls-2" d="M227.68,101s-.06-7.49-3-9.74C224.72,91.26,229.19,92.47,227.68,101Z" transform="translate(-12.72 -31.51)"/><path class="cls-1" d="M65.55,82.27s-.1-2.54-3.42-5.77S48.36,66,51.84,53.25s3.89-16.73,2.44-19.74-.47-2.45,2.4.49,5.9,5.38,5.53,9.07-.38,3.48,2.14,4.63,5.18,4.08,3.43,7.51-3.12,4.19-.5,7.46,3.39,4.64,1.39,8.39-3.58,4.52-3.43,6.1a9,9,0,0,0,2.67,5.51C69.75,84.56,66.63,85.14,65.55,82.27Z" transform="translate(-12.72 -31.51)"/><path class="cls-2" d="M63.2,74.23s-6.41-12.15-5.36-16.37a17.54,17.54,0,0,0,.34-7.38s-1,5-1.46,7.62S57.15,66.65,63.2,74.23Z" transform="translate(-12.72 -31.51)"/><path class="cls-2" d="M64.17,70.67s-3.7-7.8-1.82-11.59C62.35,59.08,58.31,62.58,64.17,70.67Z" transform="translate(-12.72 -31.51)"/><path class="cls-1" d="M63.25,86.38s-2.73-1.2-4.84-6.25-5.57-19.66-21-21.37-20-3-22.69-5.89-2.48-1.58-.51,2.84,3.34,8.81,7.54,10,4,1.1,4.15,4.36,2.23,7.44,6.74,7,5.95-1.6,8.39,2.68,3.62,5.73,8.6,5.17,6.51-2,8.17-1.12a10.75,10.75,0,0,1,4.88,5.32C63.94,92,65.94,88.81,63.25,86.38Z" transform="translate(-12.72 -31.51)"/><path class="cls-2" d="M55.47,80.32S44.93,68,39.86,67.34a20.7,20.7,0,0,1-8.24-2.83l9,1.7C43.67,66.81,49.78,70.4,55.47,80.32Z" transform="translate(-12.72 -31.51)"/><path class="cls-2" d="M51.14,79.83s-6.94-7.43-11.91-7C39.23,72.81,44.82,69.9,51.14,79.83Z" transform="translate(-12.72 -31.51)"/><path class="cls-1" d="M58.32,92.35s-1.51.5-4.15-.75-9.26-5.83-16-1-9,6-11.13,5.78-1.55.26.82,1.31S32.32,100,34.42,99s2-1,3.21.25,3.55,2.16,5.19.38,1.79-2.77,4.3-1.94,3.49,1,5.27-1,1.88-3.11,2.85-3.37a5.77,5.77,0,0,1,3.84.37C60.6,94.33,60.26,92.35,58.32,92.35Z" transform="translate(-12.72 -31.51)"/><path class="cls-2" d="M53.06,92.72s-8.59-1.11-10.85.43A11.15,11.15,0,0,1,37.92,95l4.18-2.54C43.53,91.58,47.25,90.82,53.06,92.72Z" transform="translate(-12.72 -31.51)"/><path class="cls-2" d="M51.17,94.08s-5.42-.47-7.25,1.47C43.92,95.55,45.1,92.39,51.17,94.08Z" transform="translate(-12.72 -31.51)"/><path class="cls-3" d="M164.18,134.43l.23-.22Z" transform="translate(-12.72 -31.51)"/><path class="cls-3" d="M214.39,128.08c-6.94-.66-19-1.54-29.12-.9-9.07.57-15.39,2.19-19.94,6.15,0-.16,0-.33,0-.51,0-5.12,5.82-2.75,6-5.92.15-2.1-3.84-4.05-6.56-5.14l.33-.85c1.41.43,3.21,1,4.85,1.51,3.36,1.09,4.74.3,3.86-3s-.56-4.16.57-5.4,2.3-4.2-.87-4a39,39,0,0,0-7.39,1.67c-.06-.41-.13-.82-.21-1.22a19.58,19.58,0,0,0,3.7-2.15c1.41-1.07,2.49-2.18,2.66-3.08,3.1,4.41,8.21,7.67,15.65,10.89,11.08,4.79,25.4,8.47,31,9.81l-.22-.18.5.4c1.5,1.23,1,1.78.07,1.07a3.67,3.67,0,0,0-5.15,1.3C214.22,128.33,214.3,128.2,214.39,128.08Z" transform="translate(-12.72 -31.51)"/><path class="cls-3" d="M171.94,104.58l-.07-.11Z" transform="translate(-12.72 -31.51)"/><path class="cls-3" d="M217.09,121.22a2.6,2.6,0,0,0-.29.28A2,2,0,0,1,217.09,121.22Z" transform="translate(-12.72 -31.51)"/><path class="cls-4" d="M165.33,133.33c0-.16,0-.33,0-.51,0-5.12,5.82-2.75,6-5.92.15-2.1-3.84-4.05-6.56-5.14l.33-.85c1.41.43,3.21,1,4.85,1.51,3.36,1.09,4.74.3,3.86-3s-.56-4.16.57-5.4,2.3-4.2-.87-4a39,39,0,0,0-7.39,1.67c-.06-.41-.13-.82-.21-1.22a19.58,19.58,0,0,0,3.7-2.15c1.41-1.07,2.49-2.18,2.66-3.08,3.1,4.41,8.21,7.67,15.65,10.89,11.08,4.79,25.39,8.46,31,9.81l.28.22c1.5,1.23,1,1.78.07,1.07a3.67,3.67,0,0,0-5.15,1.3c.09-.14.17-.27.26-.39-6.94-.66-19-1.54-29.12-.9C176.2,127.75,169.88,129.37,165.33,133.33Z" transform="translate(-12.72 -31.51)"/><path class="cls-3" d="M82.2,115.78l.24-.21Z" transform="translate(-12.72 -31.51)"/><path class="cls-3" d="M132.75,113.37c-6.87-1.2-18.8-3-29-3.18-9.09-.13-15.52,1-20.36,4.58q0-.24.06-.51c.44-5.1,6-2.28,6.48-5.43.31-2.08-3.51-4.34-6.14-5.64.14-.27.27-.54.4-.82,1.37.54,3.12,1.23,4.72,1.89,3.27,1.34,4.69.66,4.08-2.75s-.23-4.19,1-5.33,2.63-4-.55-4.07A39.44,39.44,0,0,0,86,93.2c0-.42-.06-.83-.11-1.23a19.7,19.7,0,0,0,3.85-1.86c1.5-1,2.66-2,2.9-2.87,2.74,4.64,7.58,8.29,14.75,12.09C118,105,132,109.75,137.45,111.53l-.21-.2.47.44c1.4,1.34.82,1.85,0,1.07a3.66,3.66,0,0,0-5.23.89A3.51,3.51,0,0,1,132.75,113.37Z" transform="translate(-12.72 -31.51)"/><path class="cls-3" d="M92.26,86.62l-.06-.11Z" transform="translate(-12.72 -31.51)"/><path class="cls-3" d="M136,106.74a2.66,2.66,0,0,0-.31.26A2,2,0,0,1,136,106.74Z" transform="translate(-12.72 -31.51)"/><path class="cls-4" d="M83.43,114.77q0-.24.06-.51c.44-5.1,6-2.28,6.48-5.43.31-2.08-3.51-4.34-6.14-5.64.14-.27.27-.54.4-.82,1.37.54,3.12,1.23,4.72,1.89,3.27,1.34,4.69.66,4.08-2.75s-.23-4.19,1-5.33,2.63-4-.55-4.07A39.44,39.44,0,0,0,86,93.2c0-.42-.06-.83-.11-1.23a19.7,19.7,0,0,0,3.85-1.86c1.5-1,2.66-2,2.9-2.87,2.74,4.64,7.58,8.29,14.75,12.09C118,105,132,109.75,137.44,111.52l.27.25c1.4,1.34.82,1.85,0,1.07a3.66,3.66,0,0,0-5.23.89,3.51,3.51,0,0,1,.29-.36c-6.87-1.2-18.8-3-29-3.18C94.7,110.06,88.27,111.17,83.43,114.77Z" transform="translate(-12.72 -31.51)"/><path class="cls-1" d="M118.88,180.24c2-3.11,2.06-7.59-.1-22s10.29-21.1,14.36-24.22a16.29,16.29,0,0,0,2.68-2.55,6.69,6.69,0,0,0,1,1.5c-.07.25-.14.49-.19.73-.37,1.71,1.28,2.77,3,7.15s.68,5.8-2.63,9.06-1.89,4.28-.42,8.27-1.84,6.87-4.76,7.81-2.89.7-3,4.81-3.73,6.39-7.27,9.25S116.88,183.36,118.88,180.24Z" transform="translate(-12.72 -31.51)"/><path class="cls-1" d="M157.2,78.22c2.1,4.13,2.62,5.8-.39,9.42s-4.9,4.09-5.1,5.83a10.09,10.09,0,0,0,1.62,6.53,11.84,11.84,0,0,0-1.19.21,27.46,27.46,0,0,0-1.78-4.52,15.77,15.77,0,0,0-1.87-3.64c-2.86-4.25-12.54-14.54-5.9-27.54s8-17.26,7.11-20.84,0-2.77,2.49,1.06,5.19,7.18,3.95,11.09-1.2,3.69,1.27,5.5,4.69,5.61,2,8.92S155.11,74.08,157.2,78.22Z" transform="translate(-12.72 -31.51)"/><path class="cls-1" d="M158.22,145.2c4.28-13.14,11.78-17,27.05-18,10.15-.64,22.18.24,29.12.9a5.87,5.87,0,0,0-.86,1.81,6.86,6.86,0,0,0-.27,1.7c-3.74.39-11.48,1.91-22.48,7.63-15.91,8.28-20.95,26.56-21.49,27.94a2.35,2.35,0,0,0-.17,1.46,14.89,14.89,0,0,1-2.21-.67C159.8,165.16,153.94,158.34,158.22,145.2Z" transform="translate(-12.72 -31.51)"/><path class="cls-2" d="M150.16,89.84s-4.2-14.63-2.11-19a19.52,19.52,0,0,0,2-7.93s-2.19,5.21-3.31,7.93S145.32,80.25,150.16,89.84Z" transform="translate(-12.72 -31.51)"/><path class="cls-2" d="M152,86.19s-2.24-9.29.64-13C152.66,73.21,147.5,76.1,152,86.19Z" transform="translate(-12.72 -31.51)"/><path class="cls-2" d="M134,136.62s-8.64,12.53-8,17.3a19.48,19.48,0,0,1-.59,8.16s-.42-5.63-.61-8.56S126.37,144.17,134,136.62Z" transform="translate(-12.72 -31.51)"/><path class="cls-2" d="M134.62,140.67s-5.09,8.09-3.52,12.5C131.1,153.17,127.12,148.79,134.62,140.67Z" transform="translate(-12.72 -31.51)"/><path class="cls-1" d="M168.62,90c.42-13.81,8.24-18.24,15.87-18.47a15.51,15.51,0,0,1,2.31.12,2.29,2.29,0,0,0-.33,1.43c0,1.48-1.4,20.39,10.77,33.56a62.52,62.52,0,0,0,22,15.16c2.34.56-.53,1.37-.53,1.36-1.2,1.64-1.16,1.67.24,2.76-5.55-1.34-19.87-5-31-9.81C173.94,110,168.2,103.77,168.62,90Z" transform="translate(-12.72 -31.51)"/><path class="cls-2" d="M211.3,116.3c-1.07-3.94-1.11-6.68-4.63-9.76s-7-.9-7.72-2.17.43-3.61,0-8.34-5.11-7.89-7-8.24-.78-2.58,1.57-6.93c2.1-3.88-.59-8.46-6.63-9.25.38-.51,1.13-.75,2.5-.72,2.32,0,8.77,0,11.66,4.94s.19,11.27.62,12.27,4.69.86,7,2.88a8.06,8.06,0,0,1,2.24,8.85c-1.27,3.24-.83,3.25,2,4.51s5.61,5.15,4.39,8.38c-1,2.71-2.06,5.88.3,8.21a3.2,3.2,0,0,0-.38.29,2.81,2.81,0,0,0-.48.52,1.82,1.82,0,0,1,.14-.19C214.65,120.46,211.94,118.64,211.3,116.3Z" transform="translate(-12.72 -31.51)"/><path class="cls-5" d="M197.24,106.6C185.07,93.43,186.51,74.52,186.47,73a2.29,2.29,0,0,1,.33-1.43c6,.79,8.73,5.37,6.63,9.25-2.35,4.35-3.51,6.58-1.57,6.93s6.58,3.52,7,8.24-.67,7.06,0,8.34,4.2-.91,7.72,2.17,3.56,5.82,4.63,9.76c.64,2.34,3.35,4.16,5.45,5.25a1.82,1.82,0,0,0-.14.19l0,0C213.54,120.4,206.35,116.46,197.24,106.6Z" transform="translate(-12.72 -31.51)"/><ellipse class="cls-6" cx="153.38" cy="115.72" rx="15.96" ry="12.8" transform="translate(-7.39 206.68) rotate(-76.63)"/><path class="cls-2" d="M214.75,123.12a56.3,56.3,0,0,1-19.19-11c-9.07-8-10.83-16.2-10.83-16.2s.58,9.31,6.91,14.2c0,0-10.56-6.17-13.75-16.89C177.89,93.23,174.85,110.13,214.75,123.12Z" transform="translate(-12.72 -31.51)"/><path class="cls-2" d="M212.85,129.6a56.26,56.26,0,0,0-21.78,3.86C179.82,137.94,175.39,145,175.39,145s3.7-8.56,11.31-11c0,0-12,2.23-18.66,11.24C168,145.26,170.9,128.33,212.85,129.6Z" transform="translate(-12.72 -31.51)"/><path class="cls-5" d="M169.29,167.16c.54-1.38,5.58-19.66,21.49-27.94,11-5.72,18.74-7.24,22.48-7.63,0,.1,0,.2,0,.31-2.2.39-4.76,1.22-6,3-2.34,3.34-3.3,5.9-7.66,7.61s-6.89-1.52-8-.57-.82,3.54-2.86,7.83-7.48,5.7-9.43,5.37-1.6,2.16-.86,7.05c.66,4.37-3.43,7.77-9.37,6.47A2.35,2.35,0,0,1,169.29,167.16Z" transform="translate(-12.72 -31.51)"/><path class="cls-2" d="M178.49,162.15c-.74-4.89-1.08-7.38.86-7.05s7.38-1.08,9.43-5.37,1.75-6.87,2.86-7.83,3.64,2.28,8,.57,5.32-4.27,7.66-7.61c1.22-1.74,3.78-2.57,6-3a8,8,0,0,0,.15,1.52c-1.78,1.64-1.86,4.36-1.82,6.79.06,3.45-3.9,6.15-7,6.39s-3.48.11-3.38,3.59a8,8,0,0,1-5.1,7.56c-2.85,1.13-6.8-.45-7.55.35s-.34,7.63-4.74,11.33-10.45,1.45-12.64.71c-1.3-.44-1.92-.92-2.11-1.52C175.06,169.92,179.15,166.52,178.49,162.15Z" transform="translate(-12.72 -31.51)"/><path class="cls-1" d="M75.41,126c5.29-12.76,13.08-16.08,28.38-15.85,10.16.16,22.09,2,29,3.18a5.44,5.44,0,0,0-1,1.73,6.68,6.68,0,0,0-.4,1.67c-3.76.11-11.6,1-23,5.86-16.51,7-23,24.84-23.6,26.17a2.24,2.24,0,0,0-.29,1.44,14.3,14.3,0,0,1-2.16-.84C75.43,146.06,70.12,138.8,75.41,126Z" transform="translate(-12.72 -31.51)"/><path class="cls-1" d="M90.1,71.79c1.49-13.74,9.64-17.55,17.27-17.18a13.47,13.47,0,0,1,2.29.31,2.18,2.18,0,0,0-.44,1.39c-.08,1.48-3,20.22,8.11,34.3,8.31,10.54,15.18,15,18.11,16.63v0c-1.33,1.54.69,3.11,2,4.31C132,109.75,118,105,107.36,99.33,93.83,92.17,88.6,85.52,90.1,71.79Z" transform="translate(-12.72 -31.51)"/><path class="cls-2" d="M130.59,101.38c-.76-4-.59-6.74-3.86-10.09s-6.91-1.45-7.52-2.77.71-3.56.61-8.31-4.48-8.27-6.39-8.77-.57-2.63,2.12-6.78c2.39-3.71.06-8.49-5.89-9.74.42-.48,1.18-.66,2.55-.53,2.3.23,8.74.66,11.23,5.84s-.69,11.25-.33,12.28,4.6,1.22,6.74,3.42a8.05,8.05,0,0,1,1.54,9c-1.52,3.13-1.08,3.18,1.61,4.65s5.19,5.58,3.72,8.7c-1.24,2.62-2.51,5.71-.34,8.21a2.76,2.76,0,0,0-.41.26,3.07,3.07,0,0,0-.52.48l.16-.18C133.6,105.79,131,103.76,130.59,101.38Z" transform="translate(-12.72 -31.51)"/><path class="cls-5" d="M117.33,90.61c-11.11-14.08-8.19-32.82-8.11-34.3a2.18,2.18,0,0,1,.44-1.39c6,1.25,8.28,6,5.89,9.74-2.69,4.15-4,6.28-2.12,6.78s6.29,4,6.39,8.77-1.22,7-.61,8.31,4.25-.58,7.52,2.77,3.1,6.08,3.86,10.09c.45,2.38,3,4.41,5,5.66l-.16.18v0C132.51,105.64,125.64,101.15,117.33,90.61Z" transform="translate(-12.72 -31.51)"/><path class="cls-2" d="M133.5,108.45A56.34,56.34,0,0,1,115.22,96c-8.41-8.71-9.53-17-9.53-17s-.15,9.33,5.78,14.7c0,0-10-7-12.39-17.92C99.08,75.76,94.73,92.38,133.5,108.45Z" transform="translate(-12.72 -31.51)"/><path class="cls-2" d="M131.09,114.76a56.32,56.32,0,0,0-22,2.14c-11.57,3.6-16.54,10.33-16.54,10.33s4.36-8.25,12.14-10.11c0,0-12.16,1.29-19.48,9.75C85.2,126.87,89.37,110.21,131.09,114.76Z" transform="translate(-12.72 -31.51)"/><path class="cls-5" d="M84.74,148.8c.64-1.33,7.09-19.16,23.6-26.17,11.41-4.84,19.25-5.75,23-5.86,0,.11,0,.21,0,.31-2.22.23-4.84.85-6.19,2.49-2.59,3.15-3.76,5.62-8.23,7s-6.75-2.06-7.93-1.19-1.09,3.46-3.46,7.58-7.9,5.1-9.82,4.62-1.76,2-1.4,7c.32,4.4-4,7.47-9.85,5.71A2.24,2.24,0,0,1,84.74,148.8Z" transform="translate(-12.72 -31.51)"/><path class="cls-2" d="M94.3,144.53c-.36-4.93-.51-7.44,1.4-7s7.45-.51,9.82-4.62,2.29-6.71,3.46-7.58,3.46,2.55,7.93,1.19,5.64-3.84,8.23-7c1.35-1.64,4-2.26,6.19-2.49a7.86,7.86,0,0,0,0,1.53c-1.9,1.5-2.19,4.21-2.34,6.63-.21,3.44-4.37,5.83-7.44,5.83s-3.48-.17-3.65,3.31a8.06,8.06,0,0,1-5.68,7.14c-2.93.91-6.74-1-7.55-.24s-.93,7.58-5.61,10.93-10.53.62-12.66-.29c-1.26-.53-1.85-1.06-2-1.68C90.27,152,94.62,148.93,94.3,144.53Z" transform="translate(-12.72 -31.51)"/><path class="cls-7" d="M144.29,105.6c-1.93-1.58-4.61-3.77-5.88-4.83-2.11-1.77.22-2.43,2.7-2.37s3.75-.92,3.49-3.66,2-4.29,4.32-1.34a21.5,21.5,0,0,1,3.22,6.81A14.28,14.28,0,0,0,144.29,105.6Z" transform="translate(-12.72 -31.51)"/><path class="cls-7" d="M159.78,101.27a10.52,10.52,0,0,0-2.71-1.08,10.33,10.33,0,0,0-3.17-.25,29.31,29.31,0,0,1-.45-5.79c.12-3.24,1.76-3.27,3.1-2.07s1.68,1.36,4.27.39,2.33.48,1.32,3.42A45.94,45.94,0,0,1,159.78,101.27Z" transform="translate(-12.72 -31.51)"/><path class="cls-7" d="M132.63,122.76c1.62-1.12,5.22-1.94,8-2.55a14.6,14.6,0,0,0,4.23,8.41,18.18,18.18,0,0,0-2.58,3c-1.35,2.1-4.6,4.61-6.09,3s-.19-2.43,0-5.43-.63-1.75-3.44-2.87S130.91,124,132.63,122.76Z" transform="translate(-12.72 -31.51)"/><path class="cls-7" d="M143.38,106.9a19.2,19.2,0,0,0-2.45,5.86,19.63,19.63,0,0,0-.52,5.16,18.33,18.33,0,0,1-8-.45c-4.07-.94-.58-3.83,1.43-5.58s.82-3.06.06-6.19,1.87-2.79,4.59-2A16.19,16.19,0,0,1,143.38,106.9Z" transform="translate(-12.72 -31.51)"/><path class="cls-7" d="M165.16,120.91a22.21,22.21,0,0,0,.67-2.23,19.25,19.25,0,0,0,.35-7.05,39,39,0,0,1,7.39-1.67c3.17-.19,2,2.78.87,4s-1.45,2-.57,5.4-.5,4.14-3.86,3C168.37,121.89,166.57,121.34,165.16,120.91Z" transform="translate(-12.72 -31.51)"/><path class="cls-7" d="M146,129.55a10.5,10.5,0,0,0,3.7,1.7,11,11,0,0,0,7.1-.76c1.35,2.95,1.53,8.87.08,9.18s-1.15-1.89-3.64-2.34-2.34,2.48-4.75,2.75-2.2-2.9-2.4-6.74C146,131.76,146,130.5,146,129.55Z" transform="translate(-12.72 -31.51)"/><path class="cls-7" d="M165.35,132.82c0,.18,0,.35,0,.51a19.6,19.6,0,0,0-2,2.06A11.67,11.67,0,0,1,160,132.9a6.06,6.06,0,0,1-1.57-3.31,17,17,0,0,0,6.39-7.83c2.72,1.09,6.71,3,6.56,5.14C171.17,130.07,165.39,127.7,165.35,132.82Z" transform="translate(-12.72 -31.51)"/><path class="cls-7" d="M162.31,99.72c2.12-2.35,3.72-2.94,4.68-1.92s.08,4.92,3.44,5.64a4.6,4.6,0,0,1,1,.33c.28.48.57,1,.89,1.41-.17.9-1.25,2-2.66,3.08a19.58,19.58,0,0,1-3.7,2.15,13.86,13.86,0,0,0-5.31-8.6A18.29,18.29,0,0,1,162.31,99.72Z" transform="translate(-12.72 -31.51)"/><path class="cls-6" d="M80.27,82.38s-8,2.65-12.1,9.12a23.47,23.47,0,0,0-3.87,13.72c.09,1.67,0,1.81.86,1.2a5.58,5.58,0,0,1,3.38-1.29c1.14.15,1.18.55.9-1.43s2-4.26,3.61-4.1,2.26-.59,1.35-2.15.88-2.44,2.08-2.54,1.44-.33.29-2.57,1-3,2-3.38S80,87.41,79.41,86a2.07,2.07,0,0,1,.91-2.66C80.93,83,81.21,82,80.27,82.38Z" transform="translate(-12.72 -31.51)"/><path class="cls-7" d="M58.48,117.81c-2.16-3.83.93-5.87,2.07-6s1.12-.91-.81-.69-5.16,1.12-5-1.9,3.36-2.16.72-4.77-1-2.81,1.8-2.86,5.9.29,6-.61-4.3-1.18-6.16-1.69-3.78-1.7-2.88-3.42,2.61-.07,3.66-1.6-2.63-2.32.31-3.51,5.19,1.27,6.73,2.14c.74.42,1.35.85,1.84,1.13a22.73,22.73,0,0,0-2.47,11.21c.09,1.67,0,1.81.86,1.2a5.58,5.58,0,0,1,3.38-1.29c1.14.15,1.18.55.9-1.43s2-4.26,3.61-4.1,2.26-.59,1.35-2.15.88-2.44,2.08-2.54,1.44-.33.29-2.57,1-3,2-3.38S80,87.41,79.41,86a2.07,2.07,0,0,1,.91-2.66c.61-.38.89-1.34,0-1,0,0-8,2.65-12.1,9.12-.35.56-.66,1.11-1,1.66-.47-.37-1.16-.86-2.15-1.57-2.55-1.84-6.68-3.58-5.76-5.19s4.1-.94,4.94-2.12a5.73,5.73,0,0,0,1-4.85c-.42-2.35,2.52-1.74,4.17-.13s3.17,5.69,4.35,5.48.57-1.82-1.39-4.29-2.67-5.29-1.51-5.61,3.46,1.89,4.54,1.24,1.64-3.06,2.85-3.63,2.88,1.91,2.91,3.83S82,79.94,82.9,78,81.52,74.8,85,73.12s8.08,2.12,10.83,7.27,1.34,12.53.85,15.74-1.62,7-4.94,12.24L90.13,111c-1.11,1.77-9.19,9.33-16.32,10.84S60.64,121.64,58.48,117.81Z" transform="translate(-12.72 -31.51)"/><path class="cls-1" d="M406,82.27s.09-2.54,3.41-5.77S423.2,66,419.73,53.25s-3.9-16.73-2.44-19.74.46-2.45-2.4.49-5.91,5.38-5.53,9.07.37,3.48-2.15,4.63-5.17,4.08-3.43,7.51,3.12,4.19.5,7.46-3.38,4.64-1.39,8.39,3.58,4.52,3.44,6.1a9.15,9.15,0,0,1-2.67,5.51C401.81,84.56,404.93,85.14,406,82.27Z" transform="translate(-12.72 -31.51)"/><path class="cls-2" d="M408.37,74.23s6.4-12.15,5.36-16.37a17.54,17.54,0,0,1-.34-7.38s1,5,1.46,7.62S414.41,66.65,408.37,74.23Z" transform="translate(-12.72 -31.51)"/><path class="cls-2" d="M407.39,70.67s3.7-7.8,1.83-11.59C409.22,59.08,413.25,62.58,407.39,70.67Z" transform="translate(-12.72 -31.51)"/><path class="cls-1" d="M408.31,86.38s2.74-1.2,4.84-6.25,5.57-19.66,21-21.37,20-3,22.69-5.89,2.49-1.58.51,2.84-3.34,8.81-7.54,10-4,1.1-4.14,4.36-2.24,7.44-6.74,7-5.95-1.6-8.4,2.68-3.62,5.73-8.6,5.17-6.5-2-8.17-1.12a10.83,10.83,0,0,0-4.88,5.32C407.62,92,405.63,88.81,408.31,86.38Z" transform="translate(-12.72 -31.51)"/><path class="cls-2" d="M416.1,80.32s10.53-12.3,15.61-13a20.61,20.61,0,0,0,8.23-2.83l-9,1.7C427.89,66.81,421.78,70.4,416.1,80.32Z" transform="translate(-12.72 -31.51)"/><path class="cls-2" d="M420.42,79.83s6.94-7.43,11.91-7C432.33,72.81,426.74,69.9,420.42,79.83Z" transform="translate(-12.72 -31.51)"/><path class="cls-1" d="M413.24,92.35s1.52.5,4.16-.75,9.25-5.83,16-1,9,6,11.13,5.78,1.56.26-.81,1.31S439.24,100,437.14,99s-2-1-3.21.25-3.55,2.16-5.19.38-1.79-2.77-4.3-1.94-3.49,1-5.27-1-1.88-3.11-2.84-3.37a5.79,5.79,0,0,0-3.85.37C411,94.33,411.3,92.35,413.24,92.35Z" transform="translate(-12.72 -31.51)"/><path class="cls-2" d="M418.5,92.72s8.59-1.11,10.86.43A11.08,11.08,0,0,0,433.64,95s-2.74-1.68-4.18-2.54S424.32,90.82,418.5,92.72Z" transform="translate(-12.72 -31.51)"/><path class="cls-2" d="M420.4,94.08s5.42-.47,7.25,1.47C427.65,95.55,426.46,92.39,420.4,94.08Z" transform="translate(-12.72 -31.51)"/><path class="cls-3" d="M307.38,134.43l-.22-.22Z" transform="translate(-12.72 -31.51)"/><path class="cls-3" d="M257.17,128.08c6.94-.66,19-1.54,29.12-.9,9.07.57,15.4,2.19,19.94,6.15,0-.16,0-.33,0-.51,0-5.12-5.82-2.75-6-5.92-.14-2.1,3.84-4.05,6.57-5.14-.12-.28-.23-.56-.33-.85-1.42.43-3.22,1-4.86,1.51-3.36,1.09-4.73.3-3.85-3s.55-4.16-.58-5.4-2.3-4.2.87-4a38.77,38.77,0,0,1,7.39,1.67c.06-.41.13-.82.21-1.22a19.23,19.23,0,0,1-3.69-2.15c-1.42-1.07-2.5-2.18-2.67-3.08-3.1,4.41-8.21,7.67-15.65,10.89-11.08,4.79-25.39,8.47-30.95,9.81l.23-.18-.51.4c-1.5,1.23-1,1.78-.06,1.07a3.66,3.66,0,0,1,5.14,1.3A3.77,3.77,0,0,0,257.17,128.08Z" transform="translate(-12.72 -31.51)"/><path class="cls-3" d="M299.62,104.58a1,1,0,0,0,.08-.11A1,1,0,0,1,299.62,104.58Z" transform="translate(-12.72 -31.51)"/><path class="cls-3" d="M254.48,121.22a3.9,3.9,0,0,1,.29.28A3.9,3.9,0,0,0,254.48,121.22Z" transform="translate(-12.72 -31.51)"/><path class="cls-4" d="M306.23,133.33c0-.16,0-.33,0-.51,0-5.12-5.82-2.75-6-5.92-.14-2.1,3.84-4.05,6.57-5.14-.12-.28-.23-.56-.33-.85-1.42.43-3.22,1-4.86,1.51-3.36,1.09-4.73.3-3.85-3s.55-4.16-.58-5.4-2.3-4.2.87-4a38.77,38.77,0,0,1,7.39,1.67c.06-.41.13-.82.21-1.22a19.23,19.23,0,0,1-3.69-2.15c-1.42-1.07-2.5-2.18-2.67-3.08-3.1,4.41-8.21,7.67-15.65,10.89-11.07,4.79-25.38,8.46-30.94,9.81l-.29.22c-1.5,1.23-1,1.78-.06,1.07a3.66,3.66,0,0,1,5.14,1.3,3.77,3.77,0,0,0-.26-.39c6.94-.66,19-1.54,29.12-.9C295.36,127.75,301.69,129.37,306.23,133.33Z" transform="translate(-12.72 -31.51)"/><path class="cls-3" d="M389.36,115.78l-.24-.21Z" transform="translate(-12.72 -31.51)"/><path class="cls-3" d="M338.82,113.37c6.86-1.2,18.79-3,28.95-3.18,9.09-.13,15.52,1,20.36,4.58q0-.24-.06-.51c-.43-5.1-6-2.28-6.48-5.43-.31-2.08,3.51-4.34,6.14-5.64-.13-.27-.27-.54-.39-.82-1.38.54-3.13,1.23-4.72,1.89-3.27,1.34-4.7.66-4.09-2.75s.24-4.19-1-5.33-2.62-4,.55-4.07a39.44,39.44,0,0,1,7.5,1.09c0-.42.06-.83.12-1.23a19.75,19.75,0,0,1-3.86-1.86c-1.49-1-2.66-2-2.9-2.87-2.74,4.64-7.58,8.29-14.75,12.09-10.67,5.64-24.65,10.42-30.08,12.2l.21-.2-.47.44c-1.4,1.34-.82,1.85,0,1.07a3.66,3.66,0,0,1,5.23.89C339,113.6,338.91,113.48,338.82,113.37Z" transform="translate(-12.72 -31.51)"/><path class="cls-3" d="M379.3,86.62l.06-.11Z" transform="translate(-12.72 -31.51)"/><path class="cls-3" d="M335.59,106.74a2,2,0,0,1,.31.26A2,2,0,0,0,335.59,106.74Z" transform="translate(-12.72 -31.51)"/><path class="cls-4" d="M388.13,114.77q0-.24-.06-.51c-.43-5.1-6-2.28-6.48-5.43-.31-2.08,3.51-4.34,6.14-5.64-.13-.27-.27-.54-.39-.82-1.38.54-3.13,1.23-4.72,1.89-3.27,1.34-4.7.66-4.09-2.75s.24-4.19-1-5.33-2.62-4,.55-4.07a39.44,39.44,0,0,1,7.5,1.09c0-.42.06-.83.12-1.23a19.75,19.75,0,0,1-3.86-1.86c-1.49-1-2.66-2-2.9-2.87-2.74,4.64-7.58,8.29-14.75,12.09-10.66,5.64-24.64,10.42-30.08,12.19l-.26.25c-1.4,1.34-.82,1.85,0,1.07a3.66,3.66,0,0,1,5.23.89c-.09-.13-.19-.25-.28-.36,6.86-1.2,18.79-3,28.95-3.18C376.86,110.06,383.29,111.17,388.13,114.77Z" transform="translate(-12.72 -31.51)"/><path class="cls-1" d="M352.68,180.24c-2-3.11-2.05-7.59.11-22S342.5,137.11,338.42,134a16.18,16.18,0,0,1-2.67-2.55,6.69,6.69,0,0,1-1,1.5,7.16,7.16,0,0,1,.19.73c.37,1.71-1.27,2.77-3,7.15s-.67,5.8,2.63,9.06,1.89,4.28.42,8.27,1.84,6.87,4.76,7.81,2.89.7,3,4.81,3.73,6.39,7.27,9.25S354.68,183.36,352.68,180.24Z" transform="translate(-12.72 -31.51)"/><path class="cls-1" d="M314.36,78.22c-2.1,4.13-2.62,5.8.39,9.42s4.91,4.09,5.1,5.83a10,10,0,0,1-1.62,6.53q.6.07,1.2.21a27.29,27.29,0,0,1,1.77-4.52,16.18,16.18,0,0,1,1.87-3.64c2.87-4.25,12.55-14.54,5.9-27.54s-8-17.26-7.1-20.84-.05-2.77-2.5,1.06-5.18,7.18-3.94,11.09,1.19,3.69-1.28,5.5-4.69,5.61-2,8.92S316.46,74.08,314.36,78.22Z" transform="translate(-12.72 -31.51)"/><path class="cls-1" d="M313.35,145.2c-4.28-13.14-11.79-17-27.06-18-10.14-.64-22.18.24-29.12.9a5.65,5.65,0,0,1,.87,1.81,6.85,6.85,0,0,1,.26,1.7c3.74.39,11.49,1.91,22.48,7.63,15.92,8.28,21,26.56,21.49,27.94a2.22,2.22,0,0,1,.17,1.46,15,15,0,0,0,2.22-.67C311.77,165.16,317.63,158.34,313.35,145.2Z" transform="translate(-12.72 -31.51)"/><path class="cls-2" d="M321.4,89.84s4.2-14.63,2.11-19a19.4,19.4,0,0,1-2-7.93s2.18,5.21,3.3,7.93S326.24,80.25,321.4,89.84Z" transform="translate(-12.72 -31.51)"/><path class="cls-2" d="M319.54,86.19s2.25-9.29-.64-13C318.9,73.21,324.07,76.1,319.54,86.19Z" transform="translate(-12.72 -31.51)"/><path class="cls-2" d="M337.55,136.62s8.63,12.53,8,17.3a19.37,19.37,0,0,0,.6,8.16s.41-5.63.61-8.56S345.19,144.17,337.55,136.62Z" transform="translate(-12.72 -31.51)"/><path class="cls-2" d="M337,140.67s5.08,8.09,3.52,12.5C340.47,153.17,344.45,148.79,337,140.67Z" transform="translate(-12.72 -31.51)"/><path class="cls-1" d="M302.94,90c-.41-13.81-8.24-18.24-15.87-18.47a15.58,15.58,0,0,0-2.31.12,2.23,2.23,0,0,1,.33,1.43c0,1.48,1.41,20.39-10.77,33.56-9.11,9.86-16.3,13.8-19.35,15.16v0c1.2,1.64-.93,3.05-2.33,4.14,5.56-1.34,19.87-5,30.95-9.81C297.63,110,303.36,103.77,302.94,90Z" transform="translate(-12.72 -31.51)"/><path class="cls-2" d="M260.26,116.3c1.07-3.94,1.12-6.68,4.64-9.76s7-.9,7.71-2.17-.43-3.61,0-8.34,5.11-7.89,7.05-8.24.78-2.58-1.57-6.93c-2.1-3.88.6-8.46,6.63-9.25-.38-.51-1.13-.75-2.5-.72-2.31,0-8.77,0-11.66,4.94S270.42,87.1,270,88.1s-4.69.86-7,2.88a8.08,8.08,0,0,0-2.24,8.85c1.27,3.24.83,3.25-2,4.51s-5.62,5.15-4.39,8.38c1,2.71,2,5.88-.31,8.21a3.27,3.27,0,0,1,.39.29,3.73,3.73,0,0,1,.48.52l-.14-.19C256.91,120.46,259.63,118.64,260.26,116.3Z" transform="translate(-12.72 -31.51)"/><path class="cls-5" d="M274.32,106.6C286.5,93.43,285.05,74.52,285.09,73a2.23,2.23,0,0,0-.33-1.43c-6,.79-8.73,5.37-6.63,9.25,2.35,4.35,3.52,6.58,1.57,6.93s-6.57,3.52-7.05,8.24.67,7.06,0,8.34-4.19-.91-7.71,2.17-3.57,5.82-4.64,9.76c-.63,2.34-3.35,4.16-5.44,5.25l.14.19v0C258,120.4,265.21,116.46,274.32,106.6Z" transform="translate(-12.72 -31.51)"/><ellipse class="cls-6" cx="318.19" cy="115.72" rx="12.8" ry="15.96" transform="translate(-30.85 45.19) rotate(-13.37)"/><path class="cls-2" d="M256.81,123.12a56.2,56.2,0,0,0,19.19-11c9.07-8,10.84-16.2,10.84-16.2s-.59,9.31-6.91,14.2c0,0,10.55-6.17,13.75-16.89C293.68,93.23,296.72,110.13,256.81,123.12Z" transform="translate(-12.72 -31.51)"/><path class="cls-2" d="M258.71,129.6a56.3,56.3,0,0,1,21.79,3.86c11.24,4.48,15.67,11.58,15.67,11.58s-3.7-8.56-11.3-11c0,0,12,2.23,18.65,11.24C303.52,145.26,300.66,128.33,258.71,129.6Z" transform="translate(-12.72 -31.51)"/><path class="cls-5" d="M302.27,167.16c-.54-1.38-5.57-19.66-21.49-27.94-11-5.72-18.74-7.24-22.48-7.63v.31c2.19.39,4.76,1.22,6,3,2.34,3.34,3.31,5.9,7.66,7.61s6.89-1.52,8-.57.81,3.54,2.86,7.83,7.48,5.7,9.42,5.37,1.6,2.16.86,7.05c-.66,4.37,3.43,7.77,9.37,6.47A2.22,2.22,0,0,0,302.27,167.16Z" transform="translate(-12.72 -31.51)"/><path class="cls-2" d="M293.07,162.15c.74-4.89,1.09-7.38-.86-7.05s-7.38-1.08-9.42-5.37-1.76-6.87-2.86-7.83-3.64,2.28-8,.57-5.32-4.27-7.66-7.61c-1.21-1.74-3.78-2.57-6-3a8.89,8.89,0,0,1-.15,1.52c1.78,1.64,1.85,4.36,1.81,6.79-.06,3.45,3.91,6.15,7,6.39s3.48.11,3.37,3.59a8.06,8.06,0,0,0,5.1,7.56c2.86,1.13,6.8-.45,7.55.35s.34,7.63,4.74,11.33,10.45,1.45,12.64.71c1.3-.44,1.93-.92,2.11-1.52C296.5,169.92,292.41,166.52,293.07,162.15Z" transform="translate(-12.72 -31.51)"/><path class="cls-1" d="M396.15,126c-5.29-12.76-13.07-16.08-28.38-15.85-10.16.16-22.09,2-28.95,3.18a5.63,5.63,0,0,1,1,1.73,6.66,6.66,0,0,1,.39,1.67c3.77.11,11.6,1,23,5.86,16.52,7,23,24.84,23.61,26.17a2.22,2.22,0,0,1,.28,1.44,14.3,14.3,0,0,0,2.16-.84C396.14,146.06,401.45,138.8,396.15,126Z" transform="translate(-12.72 -31.51)"/><path class="cls-1" d="M381.47,71.79c-1.5-13.74-9.64-17.55-17.27-17.18a13.59,13.59,0,0,0-2.3.31,2.18,2.18,0,0,1,.44,1.39c.08,1.48,3,20.22-8.11,34.3-8.31,10.54-15.17,15-18.1,16.63l0,0c1.33,1.54-.68,3.11-2,4.31,5.43-1.78,19.41-6.56,30.08-12.2C377.73,92.17,383,85.52,381.47,71.79Z" transform="translate(-12.72 -31.51)"/><path class="cls-2" d="M341,101.38c.76-4,.59-6.74,3.86-10.09s6.91-1.45,7.52-2.77-.71-3.56-.61-8.31,4.48-8.27,6.39-8.77.57-2.63-2.11-6.78c-2.4-3.71-.07-8.49,5.88-9.74-.41-.48-1.18-.66-2.54-.53-2.31.23-8.75.66-11.24,5.84s.69,11.25.34,12.28-4.61,1.22-6.74,3.42a8.07,8.07,0,0,0-1.55,9c1.53,3.13,1.09,3.18-1.6,4.65s-5.19,5.58-3.72,8.7c1.23,2.62,2.5,5.71.33,8.21a2.33,2.33,0,0,1,.41.26,3.07,3.07,0,0,1,.52.48c-.05-.06-.09-.12-.15-.18C338,105.79,340.52,103.76,341,101.38Z" transform="translate(-12.72 -31.51)"/><path class="cls-5" d="M354.23,90.61c11.11-14.08,8.19-32.82,8.11-34.3a2.18,2.18,0,0,0-.44-1.39c-5.95,1.25-8.28,6-5.88,9.74,2.68,4.15,4,6.28,2.11,6.78s-6.28,4-6.39,8.77,1.22,7,.61,8.31-4.25-.58-7.52,2.77-3.1,6.08-3.86,10.09c-.45,2.38-3,4.41-5,5.66.06.06.1.12.15.18l0,0C339.06,105.64,345.92,101.15,354.23,90.61Z" transform="translate(-12.72 -31.51)"/><path class="cls-2" d="M338.07,108.45A56.25,56.25,0,0,0,356.34,96c8.41-8.71,9.54-17,9.54-17s.14,9.33-5.78,14.7c0,0,10-7,12.38-17.92C372.48,75.76,376.84,92.38,338.07,108.45Z" transform="translate(-12.72 -31.51)"/><path class="cls-2" d="M340.47,114.76a56.37,56.37,0,0,1,22,2.14c11.56,3.6,16.53,10.33,16.53,10.33s-4.36-8.25-12.13-10.11c0,0,12.15,1.29,19.47,9.75C386.36,126.87,382.19,110.21,340.47,114.76Z" transform="translate(-12.72 -31.51)"/><path class="cls-5" d="M386.83,148.8c-.65-1.33-7.09-19.16-23.61-26.17-11.41-4.84-19.24-5.75-23-5.86a1.67,1.67,0,0,1,0,.31c2.22.23,4.85.85,6.19,2.49,2.6,3.15,3.76,5.62,8.23,7s6.76-2.06,7.93-1.19,1.09,3.46,3.46,7.58,7.91,5.1,9.82,4.62,1.77,2,1.41,7c-.32,4.4,4,7.47,9.84,5.71A2.22,2.22,0,0,0,386.83,148.8Z" transform="translate(-12.72 -31.51)"/><path class="cls-2" d="M377.27,144.53c.36-4.93.5-7.44-1.41-7s-7.44-.51-9.82-4.62-2.29-6.71-3.46-7.58-3.45,2.55-7.93,1.19-5.63-3.84-8.23-7c-1.34-1.64-4-2.26-6.19-2.49a7.86,7.86,0,0,1,0,1.53c1.91,1.5,2.19,4.21,2.34,6.63.21,3.44,4.38,5.83,7.45,5.83s3.47-.17,3.64,3.31a8.07,8.07,0,0,0,5.68,7.14c2.93.91,6.74-1,7.55-.24s.94,7.58,5.61,10.93,10.53.62,12.66-.29c1.26-.53,1.85-1.06,2-1.68C381.29,152,377,148.93,377.27,144.53Z" transform="translate(-12.72 -31.51)"/><path class="cls-7" d="M327.28,105.6c1.93-1.58,4.6-3.77,5.87-4.83,2.11-1.77-.21-2.43-2.7-2.37s-3.75-.92-3.49-3.66-1.95-4.29-4.32-1.34a21.45,21.45,0,0,0-3.21,6.81A14.31,14.31,0,0,1,327.28,105.6Z" transform="translate(-12.72 -31.51)"/><path class="cls-7" d="M311.78,101.27a10.58,10.58,0,0,1,2.72-1.08,10.24,10.24,0,0,1,3.16-.25,30,30,0,0,0,.46-5.79c-.12-3.24-1.77-3.27-3.1-2.07s-1.69,1.36-4.28.39-2.32.48-1.31,3.42A46.13,46.13,0,0,0,311.78,101.27Z" transform="translate(-12.72 -31.51)"/><path class="cls-7" d="M338.93,122.76c-1.62-1.12-5.22-1.94-8-2.55a14.54,14.54,0,0,1-4.23,8.41,18.18,18.18,0,0,1,2.58,3c1.36,2.1,4.6,4.61,6.09,3s.2-2.43,0-5.43.63-1.75,3.45-2.87S340.65,124,338.93,122.76Z" transform="translate(-12.72 -31.51)"/><path class="cls-7" d="M328.19,106.9a19.46,19.46,0,0,1,3,11,18.32,18.32,0,0,0,8-.45c4.07-.94.58-3.83-1.43-5.58s-.82-3.06-.06-6.19-1.86-2.79-4.59-2A16.15,16.15,0,0,0,328.19,106.9Z" transform="translate(-12.72 -31.51)"/><path class="cls-7" d="M306.41,120.91a18,18,0,0,1-.67-2.23,19.26,19.26,0,0,1-.36-7.05A38.77,38.77,0,0,0,298,110c-3.17-.19-2,2.78-.87,4s1.45,2,.58,5.4.49,4.14,3.85,3C303.19,121.89,305,121.34,306.41,120.91Z" transform="translate(-12.72 -31.51)"/><path class="cls-7" d="M325.57,129.55a10.45,10.45,0,0,1-3.69,1.7,11,11,0,0,1-7.1-.76c-1.35,2.95-1.53,8.87-.08,9.18s1.15-1.89,3.63-2.34,2.35,2.48,4.76,2.75,2.19-2.9,2.39-6.74C325.57,131.76,325.58,130.5,325.57,129.55Z" transform="translate(-12.72 -31.51)"/><path class="cls-7" d="M306.21,132.82c0,.18,0,.35,0,.51a18.74,18.74,0,0,1,2,2.06,11.62,11.62,0,0,0,3.3-2.49,6,6,0,0,0,1.57-3.31,16.94,16.94,0,0,1-6.38-7.83c-2.73,1.09-6.71,3-6.57,5.14C300.39,130.07,306.17,127.7,306.21,132.82Z" transform="translate(-12.72 -31.51)"/><path class="cls-7" d="M309.26,99.72c-2.13-2.35-3.73-2.94-4.69-1.92s-.08,4.92-3.43,5.64a4.7,4.7,0,0,0-1,.33c-.27.48-.57,1-.89,1.41.17.9,1.25,2,2.67,3.08a19.23,19.23,0,0,0,3.69,2.15,13.83,13.83,0,0,1,5.32-8.6A20.84,20.84,0,0,0,309.26,99.72Z" transform="translate(-12.72 -31.51)"/><path class="cls-6" d="M221.59,123.2s6.52-5.39,14.16-5.39a23.51,23.51,0,0,1,13.68,4c1.37,1,1.53,1,.56,1.37a5.59,5.59,0,0,0-2.89,2.17c-.49,1-.17,1.29-1.69,0s-4.67-.57-5.39.88-1.7,1.6-2.54,0-2.53-.55-3.26.41-1,1-2.33-1.12-3.06-.73-3.94-.08-1.93.16-2.82-1a2.06,2.06,0,0,0-2.74-.64C221.75,124.09,220.79,123.81,221.59,123.2Z" transform="translate(-12.72 -31.51)"/><path class="cls-7" d="M263.19,123.6c-2.09-3.86-5.47-2.33-6.2-1.44s-1.37.46-.16-1.06,3.7-3.77,1.05-5.22-3.62,1.69-4.43-1.93-1.85-2.33-3.38,0-2.89,5.15-3.7,4.75,1.29-4.27,1.85-6.12.57-4.1-1.37-4.26-1.44,2.17-3.29,2.25-.57-3.46-3.14-1.61-1.69,5.07-1.77,6.84c0,.85,0,1.6,0,2.16a22.87,22.87,0,0,1,10.8,3.87c1.37,1,1.53,1,.56,1.37a5.59,5.59,0,0,0-2.89,2.17c-.49,1-.17,1.29-1.69,0s-4.67-.57-5.39.88-1.7,1.6-2.54,0-2.53-.55-3.26.41-1,1-2.33-1.12-3.06-.73-3.94-.08-1.93.16-2.82-1a2.06,2.06,0,0,0-2.74-.64c-.64.32-1.6,0-.8-.57,0,0,6.52-5.39,14.16-5.39.66,0,1.3,0,1.91.07-.06-.58-.11-1.43-.18-2.64-.2-3.14.52-7.57-1.33-7.65s-3,3-4.42,3.06a5.74,5.74,0,0,1-4.67-1.69c-1.77-1.61-2.81,1.21-2.33,3.46s3.14,5.71,2.33,6.6-1.85-.48-2.9-3.46-3-5.07-3.94-4.27-.24,3.95-1.37,4.51-3.46-.24-4.58.48.08,3.46,1.69,4.51,2.65,2.57.56,2.33-2-2.89-5.31-.8-2.49,8,.4,13,9.9,7.81,12.88,9.09,6.75,2.34,13,2.34h3.1c2.09,0,12.79-2.82,17.86-8.05S265.28,127.47,263.19,123.6Z" transform="translate(-12.72 -31.51)"/><path class="cls-6" d="M391.29,82.38s8,2.65,12.1,9.12a23.39,23.39,0,0,1,3.87,13.72c-.09,1.67,0,1.81-.86,1.2a5.55,5.55,0,0,0-3.38-1.29c-1.14.15-1.17.55-.9-1.43s-2-4.26-3.61-4.1-2.26-.59-1.35-2.15-.87-2.44-2.08-2.54-1.44-.33-.28-2.57-1-3-2-3.38-1.17-1.55-.62-2.94a2.06,2.06,0,0,0-.91-2.66C390.63,83,390.36,82,391.29,82.38Z" transform="translate(-12.72 -31.51)"/><path class="cls-7" d="M413.08,117.81c2.16-3.83-.93-5.87-2.07-6s-1.11-.91.81-.69,5.17,1.12,5-1.9-3.36-2.16-.72-4.77,1-2.81-1.8-2.86-5.9.29-6-.61,4.3-1.18,6.17-1.69,3.77-1.7,2.88-3.42-2.61-.07-3.66-1.6,2.63-2.32-.31-3.51-5.19,1.27-6.73,2.14c-.74.42-1.36.85-1.85,1.13a22.61,22.61,0,0,1,2.47,11.21c-.09,1.67,0,1.81-.86,1.2a5.55,5.55,0,0,0-3.38-1.29c-1.14.15-1.17.55-.9-1.43s-2-4.26-3.61-4.1-2.26-.59-1.35-2.15-.87-2.44-2.08-2.54-1.44-.33-.28-2.57-1-3-2-3.38-1.17-1.55-.62-2.94a2.06,2.06,0,0,0-.91-2.66c-.61-.38-.88-1.34.05-1,0,0,8,2.65,12.1,9.12.35.56.66,1.11,1,1.66.46-.37,1.15-.86,2.14-1.57,2.55-1.84,6.68-3.58,5.77-5.19s-4.11-.94-4.95-2.12a5.76,5.76,0,0,1-1.05-4.85c.42-2.35-2.52-1.74-4.17-.13s-3.17,5.69-4.34,5.48-.58-1.82,1.38-4.29,2.67-5.29,1.52-5.61-3.47,1.89-4.55,1.24-1.63-3.06-2.84-3.63-2.89,1.91-2.92,3.83-.77,3.62-1.68,1.72,1.39-3.24-2.14-4.92-8.07,2.12-10.82,7.27-1.35,12.53-.85,15.74,1.61,7,4.93,12.24l1.65,2.63c1.12,1.77,9.2,9.33,16.32,10.84S410.93,121.64,413.08,117.81Z" transform="translate(-12.72 -31.51)"/></svg>